
        <svg xmlns="http://www.w3.org/2000/svg" xmlns:xlink="http://www.w3.org/1999/xlink" version="1.1" width="3162.378923663469" height="508.5200391297084" viewBox="0 0 3162.378923663469 508.5200391297084">
			
			<g transform="scale(8.118946183173435) translate(10, 10)">
				<defs id="SvgjsDefs4462"/><g id="SvgjsG4463" featureKey="symbolFeature-0" transform="matrix(0.8728066991966507,0,0,0.8728066991966507,1.1035543009745234,-21.823896515789745)" fill="#fff"><path xmlns="http://www.w3.org/2000/svg" d="M91.474,54.886c-0.433-1.257-0.687-3.043-0.687-4.881c0-1.849,0.254-3.634,0.687-4.892l2.239-6.487  c1.354-3.908,0.645-8.515-1.659-10.733c-1.034-0.994-2.419-1.512-4.003-1.512c-2.198,0-4.49,1.004-6.286,2.747l-7.016,6.751  c-7.386-5.62-18.754-9.729-27.301-9.729c-29.139,0-40.846,21.943-41.332,22.883L5.61,50.005l0.506,0.972  c0.486,0.93,12.193,22.874,41.332,22.874c8.547,0,19.915-4.11,27.301-9.73l7.016,6.762c1.796,1.743,4.088,2.736,6.286,2.736  c1.584,0,2.969-0.518,4.003-1.511c2.304-2.219,3.013-6.825,1.659-10.734L91.474,54.886z M33.133,61.142  c-6.16,0-11.146-4.987-11.146-11.137c0-6.159,4.986-11.146,11.146-11.146s11.146,4.987,11.146,11.146  C44.279,56.154,39.293,61.142,33.133,61.142z"/><circle xmlns="http://www.w3.org/2000/svg" cx="33.132" cy="50.001" r="6.128"/></g><g id="SvgjsG4464" featureKey="nameFeature-0" transform="matrix(0.6295769453623521,0,0,0.6295769453623521,95.99267709756421,5.837475772635979)" fill="#fff"><path d="M15.92 40 c-4.52 0 -8.04 -1.28 -10.56 -3.92 c-2.52 -2.6 -3.76 -5.92 -3.76 -10.04 l0 -17.24 l8 0 l0 16.76 c0 2.24 0.52 3.92 1.6 5.08 c1.08 1.2 2.64 1.8 4.72 1.8 s3.68 -0.6 4.76 -1.8 c1.08 -1.16 1.64 -2.84 1.64 -5.08 l0 -16.76 l7.96 0 l0 17.24 c0 4.08 -1.28 7.4 -3.8 10.04 s-6.04 3.92 -10.56 3.92 z M33.48 40 l0 -31.2 l14.48 0 c3.16 0 5.84 0.72 8.12 2.16 s3.96 3.32 5.04 5.64 s1.6 4.92 1.6 7.8 c0 2.92 -0.52 5.52 -1.6 7.84 s-2.76 4.2 -5.04 5.6 c-2.28 1.44 -4.96 2.16 -8.12 2.16 l-14.48 0 z M41.48 32.28 l5.88 0 c2.32 0 4.12 -0.72 5.4 -2.16 c1.24 -1.4 1.88 -3.32 1.88 -5.72 s-0.64 -4.32 -1.88 -5.72 c-1.28 -1.4 -3.08 -2.12 -5.4 -2.12 l-5.88 0 l0 15.72 z M70.96 40.68 c-1.4 0 -2.56 -0.48 -3.56 -1.48 s-1.48 -2.16 -1.48 -3.56 s0.48 -2.56 1.48 -3.56 s2.16 -1.48 3.56 -1.48 s2.56 0.48 3.56 1.48 s1.48 2.16 1.48 3.56 s-0.48 2.56 -1.48 3.56 s-2.16 1.48 -3.56 1.48 z M93.19999999999999 40 l0 -31.2 l15.52 0 c3.24 0 5.76 0.8 7.52 2.4 c1.72 1.6 2.6 3.72 2.6 6.4 c0 3.04 -1.28 5.28 -3.8 6.68 c2.52 1.44 3.8 3.88 3.8 6.92 c0 2.68 -0.88 4.8 -2.6 6.4 c-1.76 1.64 -4.28 2.4 -7.52 2.4 l-15.52 0 z M101.19999999999999 21.32 l6.6 0 c1.96 0 2.96 -0.88 2.96 -2.56 c0 -0.76 -0.2 -1.4 -0.64 -1.88 c-0.44 -0.44 -1.04 -0.64 -1.88 -0.64 l-7.04 0 l0 5.08 z M101.19999999999999 32.56 l7.04 0 c0.84 0 1.44 -0.2 1.88 -0.64 c0.44 -0.48 0.64 -1.08 0.64 -1.88 c0 -1.68 -1 -2.56 -2.96 -2.56 l-6.6 0 l0 5.08 z M138.6 40.6 c-4.52 0 -8.4 -1.6 -11.64 -4.76 c-3.28 -3.16 -4.92 -7 -4.92 -11.44 s1.64 -8.28 4.92 -11.44 c3.24 -3.16 7.12 -4.76 11.64 -4.76 c4.56 0 8.48 1.6 11.72 4.76 s4.84 7 4.84 11.44 s-1.6 8.28 -4.84 11.44 s-7.16 4.76 -11.72 4.76 z M138.6 32.88 c2.4 0 4.4 -0.84 6.04 -2.48 s2.44 -3.64 2.44 -6 s-0.8 -4.4 -2.44 -6.04 s-3.64 -2.44 -6.04 -2.44 c-2.36 0 -4.36 0.84 -6 2.48 s-2.48 3.64 -2.48 6 s0.84 4.36 2.48 6 s3.64 2.48 6 2.48 z M158.35999999999999 40 l0 -31.2 l6.8 0 l13.92 17.44 l0 -17.44 l7.96 0 l0 31.2 l-6.76 0 l-13.92 -17.4 l0 17.4 l-8 0 z M190.23999999999998 40 l12.64 -31.2 l7.92 0 l12.6 31.2 l-8.72 0 l-2.52 -6.96 l-10.6 0 l-2.6 6.96 l-8.72 0 z M204.04 26.560000000000002 l5.56 -0.04 l-2.76 -7.48 z M226.6 40 l0 -31.2 l6.8 0 l13.92 17.44 l0 -17.44 l7.96 0 l0 31.2 l-6.76 0 l-13.92 -17.4 l0 17.4 l-8 0 z M258.48 40 l0 -6.8 l14.52 -16.64 l-14.04 0 l0 -7.76 l25.96 0 l0 6.6 l-14.56 16.88 l14.6 0 l0 7.72 l-26.48 0 z M288.16 40 l12.64 -31.2 l7.92 0 l12.6 31.2 l-8.72 0 l-2.52 -6.96 l-10.6 0 l-2.6 6.96 l-8.72 0 z M301.96 26.560000000000002 l5.56 -0.04 l-2.76 -7.48 z M338.52000000000004 40 l0 -31.2 l23.96 0 l0 7.76 l-15.96 0 l0 4.48 l11.24 0 l0 7.24 l-11.24 0 l0 11.72 l-8 0 z M365.68000000000006 40 l0 -31.2 l8 0 l0 31.2 l-8 0 z M390.16 40.6 c-3.88 0 -7.04 -0.84 -9.52 -2.56 s-3.72 -4.04 -3.72 -7.04 l0 -0.36 l-0.04 -1.6 l7.84 0 l0 1.8 c0 0.68 0.48 1.32 1.4 1.92 s2.2 0.92 3.88 0.92 c1.4 0 2.4 -0.2 3.04 -0.56 c0.6 -0.36 0.92 -0.84 0.92 -1.36 c0 -0.64 -0.4 -1.2 -1.16 -1.68 c-0.8 -0.48 -2.2 -1.04 -4.16 -1.72 c-1.24 -0.44 -2.28 -0.8 -3.12 -1.12 s-1.84 -0.8 -3 -1.44 c-1.16 -0.6 -2.12 -1.28 -2.8 -1.96 s-1.28 -1.52 -1.8 -2.56 s-0.76 -2.16 -0.76 -3.4 c0 -2.92 1.12 -5.28 3.4 -7.04 s5.2 -2.64 8.8 -2.64 c3.72 0 6.76 0.92 9.16 2.76 s3.6 4.28 3.6 7.32 l0 1.96 l-7.8 0 l0 -1.8 c0 -0.84 -0.4 -1.64 -1.24 -2.32 s-2.04 -1 -3.56 -1 c-1.24 0 -2.2 0.2 -2.84 0.6 c-0.64 0.44 -0.96 0.92 -0.96 1.52 s0.36 1.08 1.08 1.48 c0.72 0.44 2.08 1 4.08 1.68 l2.04 0.72 l2.16 0.88 c0.92 0.44 1.68 0.8 2.24 1.16 s1.2 0.84 1.96 1.44 s1.32 1.24 1.76 1.84 c0.4 0.6 0.76 1.36 1.08 2.2 c0.28 0.84 0.44 1.76 0.44 2.68 c0 2.96 -1.16 5.24 -3.44 6.84 c-2.28 1.64 -5.28 2.44 -8.96 2.44 z M405.76000000000005 40 l0 -31.2 l7.96 0 l0 12.12 l12.72 0 l0 -12.12 l8 0 l0 31.2 l-8 0 l0 -11.6 l-12.72 0 l0 11.6 l-7.96 0 z"/></g>
			</g>
		</svg>
	